# xmcd
#
# Track frame offsets: 
#        150
#        10157
#        21662
#        31952
#        46651
#        61085
#        74940
#        90050
#        102729
#        121022
#        132858
#
# Disc length: 1970 seconds
#
# Revision: 1
# Processed by: cddbd v1.5PL3 Copyright (c) Steve Scherf et al.
# Submitted via: ExactAudioCopy v0.90b4
#
DISCID=8c07b00b
DTITLE=Merle Haggard and Albert E. Brumley, Jr. - Two Old Friends
DYEAR=1900
DGENRE=Country
TTITLE0=There's A Road Down The Road
TTITLE1=Victory In Jesus
TTITLE2=The Old Drover's Prayer
TTITLE3=If You See A Change In Me
TTITLE4=I Dreamed I Met Mother and Daddy
TTITLE5=I'll Fly Away
TTITLE6=Old Rugged Shoes
TTITLE7=Marching Over Jordan
TTITLE8=Someday He'll Whisper My Name
TTITLE9=Everybody Knows
TTITLE10=I'll Meet You In The Morning
EXTD=
EXTT0=
EXTT1=
EXTT2=
EXTT3=
EXTT4=
EXTT5=
EXTT6=
EXTT7=
EXTT8=
EXTT9=
EXTT10=
PLAYORDER=
